<?xml version="1.0" encoding="UTF-8" standalone="no"?>
<!-- Created with Inkscape (http://www.inkscape.org/) -->

<svg
   xmlns:dc="http://purl.org/dc/elements/1.1/"
   xmlns:cc="http://creativecommons.org/ns#"
   xmlns:rdf="http://www.w3.org/1999/02/22-rdf-syntax-ns#"
   xmlns:svg="http://www.w3.org/2000/svg"
   xmlns="http://www.w3.org/2000/svg"
   xmlns:sodipodi="http://sodipodi.sourceforge.net/DTD/sodipodi-0.dtd"
   xmlns:inkscape="http://www.inkscape.org/namespaces/inkscape"
   width="133.50883mm"
   height="53.991474mm"
   viewBox="0 0 473.0628 191.30837"
   id="svg3342"
   version="1.1"
   inkscape:version="0.91 r13725"
   sodipodi:docname="logo.svg"
   inkscape:export-filename="/Users/nmenge/projects/hashpay/public/images/onon_marker3.png"
   inkscape:export-xdpi="8.0100002"
   inkscape:export-ydpi="8.0100002">
  <defs
     id="defs3344" />
  <sodipodi:namedview
     id="base"
     pagecolor="#0fff64"
     bordercolor="#666666"
     borderopacity="1.0"
     inkscape:pageopacity="0"
     inkscape:pageshadow="2"
     inkscape:zoom="1.31"
     inkscape:cx="250.67483"
     inkscape:cy="19.133548"
     inkscape:document-units="px"
     inkscape:current-layer="layer1"
     showgrid="false"
     inkscape:window-width="1440"
     inkscape:window-height="851"
     inkscape:window-x="0"
     inkscape:window-y="0"
     inkscape:window-maximized="1"
     fit-margin-top="0"
     fit-margin-left="0"
     fit-margin-right="0"
     fit-margin-bottom="0" />
  <metadata
     id="metadata3347">
    <rdf:RDF>
      <cc:Work
         rdf:about="">
        <dc:format>image/svg+xml</dc:format>
        <dc:type
           rdf:resource="http://purl.org/dc/dcmitype/StillImage" />
        <dc:title />
      </cc:Work>
    </rdf:RDF>
  </metadata>
  <g
     inkscape:label="Layer 1"
     inkscape:groupmode="layer"
     id="layer1"
     style="display:inline"
     transform="translate(80.853427,-144.45998)">
    <g
       id="g4916"
       transform="matrix(0.53154572,0.52272277,-0.52272277,0.53154572,195.90629,-81.879323)"
       class="logo-edges"
       style="fill:#000000;fill-opacity:1">
      <path
         inkscape:connector-curvature="0"
         id="path4398"
         d="m 522.43168,269.83477 c -8.25214,4.15892 -16.28745,6.09227 -23.35771,5.62002 l -6.53245,-0.43634 -1.24216,5.69141 c -2.12055,9.71614 -5.75331,16.21483 -13.30656,23.80426 -6.18477,6.21447 -7.8477,7.31529 -21.56912,14.27899 -18.79031,9.53619 -36.81811,19.61154 -50.08682,27.99244 -8.83165,5.57832 -11.28379,7.59248 -16.71516,13.72968 -8.74564,9.88217 -17.83701,22.0402 -34.13343,45.6472 -19.89413,28.81867 -27.70553,38.75404 -37.03748,47.10823 -24.11588,21.58914 -49.32687,26.50701 -74.10718,14.45594 -6.73229,-3.27402 -8.5562,-4.6715 -16.384,-12.55345 -10.1651,-10.23539 -15.55594,-18.67229 -18.91566,-29.60376 -2.93851,-9.56101 -2.80356,-23.50975 0.31875,-32.94496 5.53825,-16.7359 14.28251,-26.34962 40.8391,-44.89984 16.56679,-11.57218 18.43373,-13.13183 32.07437,-26.79507 11.18537,-11.20389 15.56373,-16.16512 19.22637,-21.78582 11.46706,-17.59741 20.88139,-40.5337 30.51346,-74.34047 2.68671,-9.42987 5.89563,-19.7587 7.13092,-22.95294 5.75388,-14.87848 15.8391,-28.1737 27.50275,-36.25647 3.67547,-2.54707 6.64197,-4.67174 6.5922,-4.72151 -0.0498,-0.0498 -1.33122,-3.77838 -2.8477,-8.28581 -4.9588,-14.73917 -2.21594,-33.81917 7.22633,-50.26806 4.84645,-8.442744 16.48358,-19.803914 23.73463,-23.171804 11.83921,-5.49896 22.35405,-5.2788 32.41537,0.6787 8.51571,5.0423 15.16086,15.21728 16.53428,25.317134 l 0.54388,3.99958 2.97974,-0.94108 c 1.63886,-0.51761 5.43876,-0.95269 8.44421,-0.96685 16.25481,-0.0766 29.06164,12.5866 29.92414,29.58863 l 0.27017,5.32589 3.25968,-0.10177 c 1.79283,-0.056 6.05976,0.9636 9.48207,2.26572 5.17662,1.96959 6.83392,3.10098 9.86109,6.73188 6.25048,7.49708 7.63116,14.10858 5.81676,27.85406 -0.36192,2.74182 -0.13653,3.0749 3.49553,5.16591 9.74554,5.61056 13.70134,19.04179 9.13532,31.01736 l -1.56147,4.09537 5.56829,5.56829 c 5.05094,5.05095 5.64907,6.04326 6.43784,10.68048 0.50338,2.95944 0.15332,7.66713 -0.83129,11.17943 -1.54139,5.49843 -2.34654,6.74833 -8.58825,13.33207 -5.21463,5.50039 -8.15604,7.9042 -12.11081,9.89733 z m 4.50647,-28.06102 c 2.7145,-8.52847 -8.88013,-10.85019 -21.10166,-4.22542 -10.88521,5.90042 -15.46089,14.29476 -10.49747,19.25818 2.91813,2.91813 11.84608,2.02273 19.2796,-1.9336 4.06511,-2.16356 11.28091,-9.83601 12.31953,-13.09916 z m -53.22677,38.88887 c 5.60318,-16.3122 0.91876,-42.17006 -11.55156,-63.7642 -4.4752,-7.74945 -6.30172,-9.95268 -18.02431,-21.74179 -14.14492,-14.22511 -18.92582,-17.64129 -30.51897,-21.80693 -20.78816,-7.4696 -44.00651,4.50625 -55.84888,28.80641 -2.08717,4.28283 -6.44158,16.94137 -9.67645,28.13011 -10.44555,36.12891 -19.66433,58.4223 -32.11849,77.6708 -5.01066,7.74422 -8.02189,11.21553 -21.34997,24.61197 -14.9774,15.05419 -16.15022,16.03948 -33.75272,28.35408 -15.5595,10.88535 -19.24463,13.86028 -25.10689,20.26826 -5.88644,6.43441 -7.22615,8.49095 -9.35168,14.35546 -4.75614,13.12263 -3.05574,25.30843 5.3263,38.17054 4.89134,7.50569 9.39691,12.03724 16.67074,16.7669 17.71998,11.522 37.48447,8.57775 57.30508,-8.53652 8.46652,-7.31049 15.92603,-16.72864 35.45135,-44.75986 30.90326,-44.36575 40.78538,-55.63381 57.83645,-65.94788 14.76964,-8.93405 31.25898,-18.08374 46.61643,-25.86678 7.74311,-3.92416 15.02502,-7.77917 16.18202,-8.56672 4.41572,-3.00571 9.99691,-10.56997 11.91153,-16.14383 z m 43.63947,-70.93523 c 5.114,-15.76641 -11.7631,-16.88793 -27.04772,-1.79739 -13.08588,12.91972 -12.25445,25.77921 1.50747,23.31589 10.2142,-1.8283 22.51517,-12.19227 25.54025,-21.5185 z M 502.30809,180.1185 c 7.01044,-14.52102 -0.77148,-24.6065 -14.92474,-19.34267 -14.2902,5.31474 -26.73025,22.72738 -23.95183,33.52592 1.24858,4.85269 3.88108,6.75132 9.77551,7.05034 4.8313,0.24509 8.60998,-1.01965 15.82732,-5.29748 3.15631,-1.87078 11.07039,-11.37223 13.27374,-15.93611 z m -32.77236,-20.53307 c 4.88408,-8.09419 7.07775,-19.59224 5.00416,-26.2292 -1.57585,-5.04383 -5.98134,-8.54829 -11.16979,-8.88531 -15.29468,-0.99348 -33.96405,23.57241 -31.54919,41.51363 0.36833,2.73643 1.66152,5.58165 3.61186,7.94665 2.61126,3.16643 3.63097,3.73505 7.25755,4.04734 5.36543,0.46198 9.18624,-0.76747 14.64921,-4.71377 4.63732,-3.34987 8.73987,-7.95133 12.1962,-13.67934 z m -43.3384,-17.93898 c 12.6803,-21.37453 9.44925,-46.792314 -6.28448,-49.438434 -1.93404,-0.32527 -5.76891,0.17456 -8.52193,1.11075 -6.81157,2.3163 -16.9631,12.490204 -20.95187,20.998104 -10.89117,23.23021 -5.20991,46.30975 11.26155,45.74887 8.02059,-0.27312 18.3306,-8.02526 24.49676,-18.41925 z"
         class="logo-edges"
         style="fill:#000000;fill-opacity:1"
         sodipodi:nodetypes="sscssssssssssssssssssssssscsssccssssscsssssssssscsssssssssssssssssccsssssssssssssssssscsssscc" />
    </g>
    <g
       id="g4932"
       class="logo-fill"
       style="fill:#ffffff;fill-opacity:1;stroke:#000000;stroke-width:2;stroke-linecap:square;stroke-linejoin:miter;stroke-miterlimit:4;stroke-dasharray:none;stroke-opacity:1"
       transform="translate(-207.8168,-74.045802)" />
    <g
       transform="matrix(-0.53154572,-0.52272277,0.52272277,-0.53154572,115.44964,562.10765)"
       id="g4444"
       class="logo-edges"
       style="fill:#000000;fill-opacity:1">
      <path
         sodipodi:nodetypes="sscssssssssssssssssssssssscsssccssssscsssssssssscsssssssssssssssssccsssssssssssssssssscsssscc"
         class="logo-edges"
         style="fill:#000000;fill-opacity:1"
         d="m 522.43168,269.83477 c -8.25214,4.15892 -16.28745,6.09227 -23.35771,5.62002 l -6.53245,-0.43634 -1.24216,5.69141 c -2.12055,9.71614 -5.75331,16.21483 -13.30656,23.80426 -6.18477,6.21447 -7.8477,7.31529 -21.56912,14.27899 -18.79031,9.53619 -36.81811,19.61154 -50.08682,27.99244 -8.83165,5.57832 -11.28379,7.59248 -16.71516,13.72968 -8.74564,9.88217 -17.83701,22.0402 -34.13343,45.6472 -19.89413,28.81867 -27.70553,38.75404 -37.03748,47.10823 -24.11588,21.58914 -49.32687,26.50701 -74.10718,14.45594 -6.73229,-3.27402 -8.5562,-4.6715 -16.384,-12.55345 -10.1651,-10.23539 -15.55594,-18.67229 -18.91566,-29.60376 -2.93851,-9.56101 -2.80356,-23.50975 0.31875,-32.94496 5.53825,-16.7359 14.28251,-26.34962 40.8391,-44.89984 16.56679,-11.57218 18.43373,-13.13183 32.07437,-26.79507 11.18537,-11.20389 15.56373,-16.16512 19.22637,-21.78582 11.46706,-17.59741 20.88139,-40.5337 30.51346,-74.34047 2.68671,-9.42987 5.89563,-19.7587 7.13092,-22.95294 5.75388,-14.87848 15.8391,-28.1737 27.50275,-36.25647 3.67547,-2.54707 6.64197,-4.67174 6.5922,-4.72151 -0.0498,-0.0498 -1.33122,-3.77838 -2.8477,-8.28581 -4.9588,-14.73917 -2.21594,-33.81917 7.22633,-50.26806 4.84645,-8.442744 16.48358,-19.803914 23.73463,-23.171804 11.83921,-5.49896 22.35405,-5.2788 32.41537,0.6787 8.51571,5.0423 15.16086,15.21728 16.53428,25.317134 l 0.54388,3.99958 2.97974,-0.94108 c 1.63886,-0.51761 5.43876,-0.95269 8.44421,-0.96685 16.25481,-0.0766 29.06164,12.5866 29.92414,29.58863 l 0.27017,5.32589 3.25968,-0.10177 c 1.79283,-0.056 6.05976,0.9636 9.48207,2.26572 5.17662,1.96959 6.83392,3.10098 9.86109,6.73188 6.25048,7.49708 7.63116,14.10858 5.81676,27.85406 -0.36192,2.74182 -0.13653,3.0749 3.49553,5.16591 9.74554,5.61056 13.70134,19.04179 9.13532,31.01736 l -1.56147,4.09537 5.56829,5.56829 c 5.05094,5.05095 5.64907,6.04326 6.43784,10.68048 0.50338,2.95944 0.15332,7.66713 -0.83129,11.17943 -1.54139,5.49843 -2.34654,6.74833 -8.58825,13.33207 -5.21463,5.50039 -8.15604,7.9042 -12.11081,9.89733 z m 4.50647,-28.06102 c 2.7145,-8.52847 -8.88013,-10.85019 -21.10166,-4.22542 -10.88521,5.90042 -15.46089,14.29476 -10.49747,19.25818 2.91813,2.91813 11.84608,2.02273 19.2796,-1.9336 4.06511,-2.16356 11.28091,-9.83601 12.31953,-13.09916 z m -53.22677,38.88887 c 5.60318,-16.3122 0.91876,-42.17006 -11.55156,-63.7642 -4.4752,-7.74945 -6.30172,-9.95268 -18.02431,-21.74179 -14.14492,-14.22511 -18.92582,-17.64129 -30.51897,-21.80693 -20.78816,-7.4696 -44.00651,4.50625 -55.84888,28.80641 -2.08717,4.28283 -6.44158,16.94137 -9.67645,28.13011 -10.44555,36.12891 -19.66433,58.4223 -32.11849,77.6708 -5.01066,7.74422 -8.02189,11.21553 -21.34997,24.61197 -14.9774,15.05419 -16.15022,16.03948 -33.75272,28.35408 -15.5595,10.88535 -19.24463,13.86028 -25.10689,20.26826 -5.88644,6.43441 -7.22615,8.49095 -9.35168,14.35546 -4.75614,13.12263 -3.05574,25.30843 5.3263,38.17054 4.89134,7.50569 9.39691,12.03724 16.67074,16.7669 17.71998,11.522 37.48447,8.57775 57.30508,-8.53652 8.46652,-7.31049 15.92603,-16.72864 35.45135,-44.75986 30.90326,-44.36575 40.78538,-55.63381 57.83645,-65.94788 14.76964,-8.93405 31.25898,-18.08374 46.61643,-25.86678 7.74311,-3.92416 15.02502,-7.77917 16.18202,-8.56672 4.41572,-3.00571 9.99691,-10.56997 11.91153,-16.14383 z m 43.63947,-70.93523 c 5.114,-15.76641 -11.7631,-16.88793 -27.04772,-1.79739 -13.08588,12.91972 -12.25445,25.77921 1.50747,23.31589 10.2142,-1.8283 22.51517,-12.19227 25.54025,-21.5185 z M 502.30809,180.1185 c 7.01044,-14.52102 -0.77148,-24.6065 -14.92474,-19.34267 -14.2902,5.31474 -26.73025,22.72738 -23.95183,33.52592 1.24858,4.85269 3.88108,6.75132 9.77551,7.05034 4.8313,0.24509 8.60998,-1.01965 15.82732,-5.29748 3.15631,-1.87078 11.07039,-11.37223 13.27374,-15.93611 z m -32.77236,-20.53307 c 4.88408,-8.09419 7.07775,-19.59224 5.00416,-26.2292 -1.57585,-5.04383 -5.98134,-8.54829 -11.16979,-8.88531 -15.29468,-0.99348 -33.96405,23.57241 -31.54919,41.51363 0.36833,2.73643 1.66152,5.58165 3.61186,7.94665 2.61126,3.16643 3.63097,3.73505 7.25755,4.04734 5.36543,0.46198 9.18624,-0.76747 14.64921,-4.71377 4.63732,-3.34987 8.73987,-7.95133 12.1962,-13.67934 z m -43.3384,-17.93898 c 12.6803,-21.37453 9.44925,-46.792314 -6.28448,-49.438434 -1.93404,-0.32527 -5.76891,0.17456 -8.52193,1.11075 -6.81157,2.3163 -16.9631,12.490204 -20.95187,20.998104 -10.89117,23.23021 -5.20991,46.30975 11.26155,45.74887 8.02059,-0.27312 18.3306,-8.02526 24.49676,-18.41925 z"
         id="path4446"
         inkscape:connector-curvature="0" />
    </g>
    <g
       id="g5014"
       class="logo-fill"
       style="fill:#ffffff;fill-opacity:1">
      <path
         transform="translate(-80.853427,144.45997)"
         inkscape:connector-curvature="0"
         id="path4990"
         d="m 28.99837,153.3774 c -13.349079,-3.58943 -11.892247,-18.54769 2.726653,-27.99634 8.754532,-5.65833 19.047193,-7.81085 27.29813,-5.7089 12.795056,3.25958 14.093812,14.11779 2.925405,24.45776 -9.15326,8.47431 -22.204036,12.13701 -32.950188,9.24748 z"
         class="logo-fill"
         style="fill:#ffffff;stroke:none;stroke-width:1px;stroke-linecap:butt;stroke-linejoin:miter;stroke-opacity:1;fill-opacity:1" />
      <path
         transform="translate(-80.853427,144.45997)"
         inkscape:connector-curvature="0"
         id="path4992"
         d="m 23.665287,113.17362 c -11.499383,-2.70779 -13.9851308,-11.47 -5.393857,-19.013237 9.62631,-8.452012 27.10277,-10.212375 34.270834,-3.45202 2.166495,2.043269 2.63638,3.039735 2.63638,5.590872 0,4.158355 -0.864757,6.187735 -3.922749,9.205745 -3.454309,3.40915 -8.938919,6.1048 -15.061166,7.40248 -5.671332,1.20209 -8.316138,1.25828 -12.529442,0.26616 z"
         class="logo-fill"
         style="fill:#ffffff;stroke:none;stroke-width:1px;stroke-linecap:butt;stroke-linejoin:miter;stroke-opacity:1;fill-opacity:1" />
      <path
         transform="translate(-80.853427,144.45997)"
         inkscape:connector-curvature="0"
         id="path4994"
         d="m 28.461087,79.166292 c -7.890041,-1.477541 -13.740458,-5.699373 -13.740458,-9.915516 0,-5.997553 7.032393,-10.324159 17.602094,-10.829502 8.15188,-0.389747 13.36146,1.103873 17.18449,4.926903 6.826354,6.826354 -0.468893,14.75813 -14.557577,15.827762 -2.519084,0.191253 -5.438931,0.186911 -6.488549,-0.0096 z"
         class="logo-fill"
         style="fill:#ffffff;stroke:none;stroke-width:1px;stroke-linecap:butt;stroke-linejoin:miter;stroke-opacity:1;fill-opacity:1" />
      <path
         transform="translate(-80.853427,144.45997)"
         inkscape:connector-curvature="0"
         id="path4996"
         d="m 38.76643,50.177302 c -5.789973,-1.4806 -8.964115,-2.964361 -10.664489,-4.985139 -2.527375,-3.003615 -2.437636,-4.113686 0.576191,-7.127513 5.860558,-5.860558 21.519649,-5.118424 28.599749,1.355432 3.330771,3.045569 1.941654,7.307409 -3.031166,9.299682 -3.272625,1.31112 -12.61356,2.190611 -15.480285,1.457538 z"
         class="logo-fill"
         style="fill:#ffffff;stroke:none;stroke-width:1px;stroke-linecap:butt;stroke-linejoin:miter;stroke-opacity:1;fill-opacity:1" />
      <path
         transform="translate(-80.853427,144.45997)"
         inkscape:connector-curvature="0"
         id="path4998"
         d="m 51.609312,26.688854 c -9.027888,-2.937156 -13.697757,-9.133208 -9.237915,-12.257003 2.672678,-1.872017 12.772541,-1.618774 16.845291,0.422377 6.921954,3.469094 9.283899,7.909318 5.857014,11.010607 -1.9943,1.804817 -9.111009,2.240358 -13.46439,0.824019 z"
         class="logo-fill"
         style="fill:#ffffff;stroke:none;stroke-width:1px;stroke-linecap:butt;stroke-linejoin:miter;stroke-opacity:1;fill-opacity:1" />
      <path
         transform="translate(-80.853427,144.45997)"
         inkscape:connector-curvature="0"
         id="path5000"
         d="M 86.476354,124.36492 C 75.979263,121.44408 69.048662,114.76082 64.984332,103.63992 63.546284,99.705107 63.28955,97.087435 62.996963,83.376652 62.691151,69.046082 62.80965,67.057735 64.316287,61.239248 67.706021,48.148413 74.197264,36.181367 82.307611,28.071019 c 5.739787,-5.739786 11.327942,-8.599688 17.946309,-9.184548 4.31305,-0.381141 6.15728,-0.05361 14.84839,2.637017 26.43534,8.183971 45.3341,12.902729 54.46239,13.598508 9.3669,0.713965 21.62669,-0.918519 63.85822,-8.503203 19.3706,-3.478916 29.76053,-4.121543 38.55453,-2.384636 18.43548,3.641201 28.26542,15.088318 28.22808,32.872041 -0.0308,14.667033 -6.08283,25.687648 -17.19361,31.309192 -4.10872,2.078821 -5.24838,2.285648 -14.05306,2.55038 -7.92843,0.238384 -11.6892,-0.07643 -21.79548,-1.824518 -10.50548,-1.817133 -14.82953,-2.154601 -30.91603,-2.41283 l -18.70229,-0.300218 -10.39996,2.637909 c -13.62323,3.455477 -26.90843,8.832368 -43.79852,17.726487 -22.43199,11.81242 -31.7951,16.29093 -36.61076,17.51151 -5.40062,1.36883 -15.450226,1.399 -20.259466,0.0608 z"
         class="logo-fill"
         style="fill:#ffffff;stroke:none;stroke-width:1px;stroke-linecap:butt;stroke-linejoin:miter;stroke-opacity:1;fill-opacity:1" />
      <path
         transform="translate(-80.853427,144.45997)"
         inkscape:connector-curvature="0"
         id="path5002"
         d="m 350.98017,167.79759 c -8.81679,-2.72251 -21.52672,-6.38454 -28.24427,-8.13786 -11.92977,-3.11372 -12.49772,-3.18703 -24.42749,-3.15292 -12.82617,0.0366 -15.46361,0.41211 -61.45038,8.74771 -16.55187,3.0002 -31.77681,3.44798 -39.31297,1.15623 -16.58676,-5.04404 -24.838,-15.95291 -24.79788,-32.78495 0.0332,-13.92296 6.61619,-25.54806 17.49175,-30.88916 3.81997,-1.87602 5.23316,-2.1155 13.88854,-2.35354 7.92981,-0.21808 11.91686,0.1198 22.51909,1.9084 11.9273,2.01214 14.35589,2.17104 32.73056,2.14156 l 19.84733,-0.0318 9.75036,-2.81463 c 13.05657,-3.769034 25.73914,-9.094179 41.39467,-17.380769 31.37371,-16.606328 35.6784,-18.290528 46.74935,-18.290528 13.67568,0 23.81509,6.181808 29.27439,17.848058 3.14258,6.715538 3.74726,11.106137 3.74726,27.208909 0,13.05885 -0.1705,14.90751 -1.94409,21.07901 -4.09923,14.26398 -12.59069,27.95748 -21.5679,34.78082 -5.20367,3.95519 -8.18301,5.05925 -15.03763,5.57255 -4.02028,0.30105 -6.53971,-0.26211 -20.61069,-4.60704 z"
         class="logo-fill"
         style="fill:#ffffff;stroke:none;stroke-width:1px;stroke-linecap:butt;stroke-linejoin:miter;stroke-opacity:1;fill-opacity:1" />
      <path
         transform="translate(-80.853427,144.45997)"
         inkscape:connector-curvature="0"
         id="path5004"
         d="m 414.96979,72.022336 c -13.37928,-2.788515 -15.35675,-13.385546 -4.50178,-24.124588 7.91298,-7.828467 18.12412,-11.617057 28.92694,-10.732618 12.47297,1.021176 17.44113,9.28372 11.58803,19.272018 -6.14514,10.486642 -23.80569,18.12948 -36.01319,15.585188 z"
         class="logo-fill"
         style="fill:#ffffff;stroke:none;stroke-width:1px;stroke-linecap:butt;stroke-linejoin:miter;stroke-opacity:1;fill-opacity:1" />
      <path
         transform="translate(-80.853427,144.45997)"
         inkscape:connector-curvature="0"
         id="path5006"
         d="m 427.2078,104.11839 c -3.40517,-0.81202 -7.44793,-3.47619 -8.63187,-5.688402 -0.63194,-1.180794 -0.86054,-3.221366 -0.60995,-5.444621 0.78174,-6.935551 9.62648,-13.154566 21.26161,-14.949703 8.05993,-1.243535 13.7683,0.02107 17.65941,3.912174 2.49493,2.494929 2.8718,3.33662 2.8718,6.413778 0,3.101199 -0.40026,3.976199 -3.21632,7.03127 -6.68342,7.250654 -19.51461,11.067244 -29.33468,8.725504 z"
         class="logo-fill"
         style="fill:#ffffff;stroke:none;stroke-width:1px;stroke-linecap:butt;stroke-linejoin:miter;stroke-opacity:1;fill-opacity:1" />
      <path
         transform="translate(-80.853427,144.45997)"
         inkscape:connector-curvature="0"
         id="path5008"
         d="m 429.46015,131.88565 c -3.73457,-1.37993 -8.63391,-6.43919 -8.6298,-8.9115 0.005,-2.88534 2.72424,-6.38301 6.31385,-8.12071 12.78885,-6.19098 31.08788,-1.74665 31.08788,7.55039 0,3.53752 -2.44362,6.34757 -7.44839,8.56534 -4.81319,2.13287 -16.65422,2.64179 -21.32354,0.91648 z"
         class="logo-fill"
         style="fill:#ffffff;stroke:none;stroke-width:1px;stroke-linecap:butt;stroke-linejoin:miter;stroke-opacity:1;fill-opacity:1" />
      <path
         transform="translate(-80.853427,144.45997)"
         inkscape:connector-curvature="0"
         id="path5010"
         d="m 426.22954,156.72683 c -11.90338,-2.47042 -16.2018,-10.1073 -7.85448,-13.95481 2.84896,-1.31317 5.02694,-1.65791 10.46771,-1.65685 3.80576,7.3e-4 8.17629,0.46068 9.79829,1.03115 3.8928,1.36912 8.14064,5.17466 8.14064,7.29301 0,1.94755 -3.27325,5.34236 -6.22652,6.45776 -3.11789,1.17758 -10.56992,1.6092 -14.32564,0.82974 z"
         class="logo-fill"
         style="fill:#ffffff;stroke:none;stroke-width:1px;stroke-linecap:butt;stroke-linejoin:miter;stroke-opacity:1;fill-opacity:1" />
      <path
         transform="translate(-80.853427,144.45997)"
         inkscape:connector-curvature="0"
         id="path5012"
         d="m 413.34658,176.15373 c -6.58931,-3.28359 -8.79395,-7.63785 -5.41386,-10.69266 2.39659,-2.16595 11.21687,-1.98664 16.32989,0.33197 5.0514,2.29067 8.01527,5.19541 8.01527,7.85536 0,3.29039 -2.43865,4.48062 -9.18028,4.48062 -4.69506,0 -6.53515,-0.37275 -9.75102,-1.97529 z"
         class="logo-fill"
         style="fill:#ffffff;stroke:none;stroke-width:1px;stroke-linecap:butt;stroke-linejoin:miter;stroke-opacity:1;fill-opacity:1" />
    </g>
    <flowRoot
       xml:space="preserve"
       id="flowRoot5116"
       class="logo-text"
       style="font-style:normal;font-weight:normal;font-size:40px;line-height:125%;font-family:sans-serif;letter-spacing:0px;word-spacing:0px;fill:#ff00ff;fill-opacity:1;stroke:none;stroke-width:1px;stroke-linecap:butt;stroke-linejoin:miter;stroke-opacity:1;"
       transform="matrix(1.908031,0,0,1.4772464,-117.53694,115.61015)"><flowRegion
         id="flowRegion5118"><rect
           id="rect5120"
           width="307.63358"
           height="128.24428"
           x="85.496185"
           y="35.583183"
           style="fill:#ff00ff;" /></flowRegion><flowPara
         id="flowPara5122"
         style="font-weight:bold;fill:#ff00ff;">hhh</flowPara></flowRoot>    <flowRoot
       xml:space="preserve"
       id="flowRoot5124"
       class="logo-text"
       style="font-style:normal;font-weight:normal;font-size:40px;line-height:125%;font-family:sans-serif;letter-spacing:0px;word-spacing:0px;fill:#ff00ff;fill-opacity:1;stroke:none;stroke-width:1px;stroke-linecap:butt;stroke-linejoin:miter;stroke-opacity:1;"
       transform="matrix(1.7904205,0,0,1.4191971,-288.79861,83.553033)"><flowRegion
         id="flowRegion5126"><rect
           id="rect5128"
           width="180.91603"
           height="46.564884"
           x="216.03053"
           y="109.62898"
           style="fill:#ff00ff;" /></flowRegion><flowPara
         id="flowPara5130"
         style="font-weight:bold;fill:#ff00ff;">info</flowPara></flowRoot>  </g>
</svg>
