<?xml version="1.0" encoding="UTF-8" standalone="no"?>
<!-- Created with Inkscape (http://www.inkscape.org/) -->

<svg
   xmlns:dc="http://purl.org/dc/elements/1.1/"
   xmlns:cc="http://creativecommons.org/ns#"
   xmlns:rdf="http://www.w3.org/1999/02/22-rdf-syntax-ns#"
   xmlns:svg="http://www.w3.org/2000/svg"
   xmlns="http://www.w3.org/2000/svg"
   xmlns:sodipodi="http://sodipodi.sourceforge.net/DTD/sodipodi-0.dtd"
   xmlns:inkscape="http://www.inkscape.org/namespaces/inkscape"
   width="95.183205mm"
   height="133.99028mm"
   viewBox="0 0 337.26332 474.76871"
   id="svg3342"
   version="1.1"
   inkscape:version="0.91 r13725"
   sodipodi:docname="onon_marker.svg"
   inkscape:export-filename="/Users/nmenge/projects/hashpay/public/images/onon_marker3.png"
   inkscape:export-xdpi="8.0100002"
   inkscape:export-ydpi="8.0100002">
  <defs
     id="defs3344" />
  <sodipodi:namedview
     id="base"
     pagecolor="#0fff64"
     bordercolor="#666666"
     borderopacity="1.0"
     inkscape:pageopacity="0"
     inkscape:pageshadow="2"
     inkscape:zoom="1.31"
     inkscape:cx="283.87925"
     inkscape:cy="206.62844"
     inkscape:document-units="px"
     inkscape:current-layer="layer1"
     showgrid="false"
     inkscape:window-width="1440"
     inkscape:window-height="851"
     inkscape:window-x="0"
     inkscape:window-y="0"
     inkscape:window-maximized="1"
     fit-margin-top="0"
     fit-margin-left="0"
     fit-margin-right="0"
     fit-margin-bottom="0" />
  <metadata
     id="metadata3347">
    <rdf:RDF>
      <cc:Work
         rdf:about="">
        <dc:format>image/svg+xml</dc:format>
        <dc:type
           rdf:resource="http://purl.org/dc/dcmitype/StillImage" />
        <dc:title></dc:title>
      </cc:Work>
    </rdf:RDF>
  </metadata>
  <g
     inkscape:label="Layer 1"
     inkscape:groupmode="layer"
     id="layer1"
     style="display:inline"
     transform="translate(-1.110534,-1.1373998)">
    <g
       id="g3357"
       transform="translate(-203.8168,-74.045802)">
      <g
         transform="translate(-2,0)"
         inkscape:export-ydpi="8.0100002"
         inkscape:export-xdpi="8.0100002"
         inkscape:export-filename="/Users/nmenge/Desktop/white_marker"
         id="g4952">
        <g
           id="g4916">
          <path
             sodipodi:nodetypes="cssssssscccscccssscsc"
             inkscape:connector-curvature="0"
             id="path4419"
             d="m 251.02455,357.04325 c 0,0 5.50337,-1.32967 5.21597,-1.27037 -16.95762,3.49908 -28.8178,14.07988 -36.32255,29.35798 -4.55331,9.26959 -5.77849,14.76507 -5.74609,25.74805 0.024,8.12805 0.3092,10.1848 2.16796,15.60351 2.72425,7.94183 8.70212,18.65862 21.58204,38.69336 16.66436,25.92142 26.40718,47.33524 31.20507,68.58399 0.92047,4.07654 1.88996,8.11444 2.1543,8.97265 0.32011,1.03925 0.9673,-0.65548 1.93945,-5.07226 15.53313,-32.45866 22.06465,-70.49868 45.2687,-98.00168 -3.66238,7.12489 -8.92753,11.58484 -14.37417,20.37277 -14.017,21.77261 -21.10752,34.73543 -26.24609,47.98242 -1.08196,2.78921 -2.90507,8.16555 -4.05273,11.94727 l -2.08594,6.875 -3.24024,-9.75782 c -6.05631,-18.24556 -13.02169,-31.86167 -28.80859,-56.31445 -10.6736,-16.53263 -17.54006,-28.88981 -19.69726,-35.45117 -3.83573,-11.66657 -2.65448,-26.14897 3.08593,-37.83984 6.70176,-13.64875 16.1257,-27.3654 29.58761,-31.59626 0.94534,-1.12196 -9.15889,7.98638 -8.38002,7.19224 0.49252,-0.50218 6.74665,-6.02539 6.74665,-6.02539 z"
             style="fill:#000000;fill-opacity:1;stroke:#000000;stroke-width:13.84648323;stroke-linejoin:round;stroke-miterlimit:4;stroke-dasharray:none;stroke-opacity:1" />
          <path
             inkscape:connector-curvature="0"
             id="path4398"
             d="m 522.43168,269.83477 c -8.25214,4.15892 -16.28745,6.09227 -23.35771,5.62002 l -6.53245,-0.43634 -1.24216,5.69141 c -2.12055,9.71614 -5.75331,16.21483 -13.30656,23.80426 -6.18477,6.21447 -7.8477,7.31529 -21.56912,14.27899 -18.79031,9.53619 -36.81811,19.61154 -50.08682,27.99244 -8.83165,5.57832 -11.28379,7.59248 -16.71516,13.72968 -8.74564,9.88217 -17.83701,22.0402 -34.13343,45.6472 -19.89413,28.81867 -27.70553,38.75404 -37.03748,47.10823 -24.11588,21.58914 -49.32687,26.50701 -74.10718,14.45594 -6.73229,-3.27402 -8.5562,-4.6715 -16.384,-12.55345 -10.1651,-10.23539 -15.55594,-18.67229 -18.91566,-29.60376 -2.93851,-9.56101 -2.80356,-23.50975 0.31875,-32.94496 5.53825,-16.7359 14.28251,-26.34962 40.8391,-44.89984 16.56679,-11.57218 18.43373,-13.13183 32.07437,-26.79507 11.18537,-11.20389 15.56373,-16.16512 19.22637,-21.78582 11.46706,-17.59741 20.88139,-40.5337 30.51346,-74.34047 2.68671,-9.42987 5.89563,-19.7587 7.13092,-22.95294 5.75388,-14.87848 15.8391,-28.1737 27.50275,-36.25647 3.67547,-2.54707 6.64197,-4.67174 6.5922,-4.72151 -0.0498,-0.0498 -1.33122,-3.77838 -2.8477,-8.28581 -4.9588,-14.73917 -2.21594,-33.81917 7.22633,-50.26806 4.84645,-8.442744 16.48358,-19.803914 23.73463,-23.171804 11.83921,-5.49896 22.35405,-5.2788 32.41537,0.6787 8.51571,5.0423 15.16086,15.21728 16.53428,25.317134 l 0.54388,3.99958 2.97974,-0.94108 c 1.63886,-0.51761 5.43876,-0.95269 8.44421,-0.96685 16.25481,-0.0766 29.06164,12.5866 29.92414,29.58863 l 0.27017,5.32589 3.25968,-0.10177 c 1.79283,-0.056 6.05976,0.9636 9.48207,2.26572 5.17662,1.96959 6.83392,3.10098 9.86109,6.73188 6.25048,7.49708 7.63116,14.10858 5.81676,27.85406 -0.36192,2.74182 -0.13653,3.0749 3.49553,5.16591 9.74554,5.61056 13.70134,19.04179 9.13532,31.01736 l -1.56147,4.09537 5.56829,5.56829 c 5.05094,5.05095 5.64907,6.04326 6.43784,10.68048 0.50338,2.95944 0.15332,7.66713 -0.83129,11.17943 -1.54139,5.49843 -2.34654,6.74833 -8.58825,13.33207 -5.21463,5.50039 -8.15604,7.9042 -12.11081,9.89733 z m 4.50647,-28.06102 c 2.7145,-8.52847 -8.88013,-10.85019 -21.10166,-4.22542 -10.88521,5.90042 -15.46089,14.29476 -10.49747,19.25818 2.91813,2.91813 11.84608,2.02273 19.2796,-1.9336 4.06511,-2.16356 11.28091,-9.83601 12.31953,-13.09916 z m -53.22677,38.88887 c 5.60318,-16.3122 0.91876,-42.17006 -11.55156,-63.7642 -4.4752,-7.74945 -6.30172,-9.95268 -18.02431,-21.74179 -14.14492,-14.22511 -18.92582,-17.64129 -30.51897,-21.80693 -20.78816,-7.4696 -44.00651,4.50625 -55.84888,28.80641 -2.08717,4.28283 -6.44158,16.94137 -9.67645,28.13011 -10.44555,36.12891 -19.66433,58.4223 -32.11849,77.6708 -5.01066,7.74422 -8.02189,11.21553 -21.34997,24.61197 -14.9774,15.05419 -16.15022,16.03948 -33.75272,28.35408 -15.5595,10.88535 -19.24463,13.86028 -25.10689,20.26826 -5.88644,6.43441 -7.22615,8.49095 -9.35168,14.35546 -4.75614,13.12263 -3.05574,25.30843 5.3263,38.17054 4.89134,7.50569 9.39691,12.03724 16.67074,16.7669 17.71998,11.522 37.48447,8.57775 57.30508,-8.53652 8.46652,-7.31049 15.92603,-16.72864 35.45135,-44.75986 30.90326,-44.36575 40.78538,-55.63381 57.83645,-65.94788 14.76964,-8.93405 31.25898,-18.08374 46.61643,-25.86678 7.74311,-3.92416 15.02502,-7.77917 16.18202,-8.56672 4.41572,-3.00571 9.99691,-10.56997 11.91153,-16.14383 z M 296.13127,410.44504 c -7.88468,3.00418 -15.54385,0.6575 -23.35798,-7.15663 -8.38755,-8.38756 -10.14988,-16.24923 -5.66152,-25.25588 3.58661,-7.19716 13.71206,-14.11036 20.45413,-13.96517 10.76762,0.2319 22.47568,10.49447 24.46062,21.44067 1.18748,6.54863 -1.09498,12.16118 -7.53863,18.53733 -2.90646,2.87606 -6.66696,5.75589 -8.35662,6.39968 z m 3.5898,-19.8535 c 10e-6,-3.66934 -0.48679,-4.62065 -4.33215,-8.46601 -4.55201,-4.55201 -9.30116,-6.75452 -11.98608,-5.55876 -3.23021,1.43862 -6.41797,5.55572 -6.41797,8.28903 0,3.39875 2.99751,7.90187 7.81925,11.74676 6.87261,5.48026 14.91696,2.23866 14.91695,-6.01102 z m 10.14427,-23.68808 -15.9099,-15.9099 4.49216,-4.49216 4.49216,-4.49217 14.4196,2.90452 14.41959,2.90453 -8.65852,-8.6656 -8.65923,-8.66488 4.59619,-4.5962 4.5962,-4.59619 15.9099,15.9099 15.9099,15.9099 -4.49216,4.49217 -4.49217,4.49216 -14.41959,-2.90452 -14.41959,-2.90452 8.65852,8.66559 8.65923,8.66489 -4.5962,4.59619 -4.59619,4.5962 -15.9099,-15.90991 z m 70.87893,-42.27624 c -3.32676,1.02533 -6.33277,0.96559 -10.56132,-0.20989 -11.17109,-3.1054 -20.46312,-15.46442 -19.01494,-25.29113 2.10868,-14.30862 17.21802,-24.61592 29.38735,-20.0475 5.77824,2.16917 14.27148,10.64974 16.35778,16.33331 1.76791,4.8163 1.77286,10.84792 0.0121,14.74715 -0.68116,1.50847 -3.55421,5.0584 -6.38454,7.88873 -3.99044,3.99044 -6.19034,5.4679 -9.79642,6.57931 z m 5.31862,-19.47229 c 0.43891,-5.83844 -8.34872,-14.97255 -14.40459,-14.97255 -2.73331,0 -6.85042,3.18775 -8.28903,6.41797 -1.19576,2.68491 1.00675,7.43407 5.55876,11.98608 3.84536,3.84536 4.79667,4.33215 8.46601,4.33215 5.10277,0 8.30051,-2.86383 8.66885,-7.76365 z m 10.10322,-24.48475 -15.94365,-15.94365 4.52203,-4.52202 4.52203,-4.52204 14.06593,2.95746 14.06594,2.95744 -8.31315,-8.71023 -8.31315,-8.71023 4.58795,-4.58796 4.58796,-4.58796 15.54282,15.92343 15.54283,15.92343 -4.09402,4.50893 -4.09402,4.50894 -14.06196,-2.86592 -14.06196,-2.86592 7.90293,8.61003 7.90293,8.61004 -4.2089,4.62994 -4.2089,4.62993 -15.94364,-15.94364 z m -48.47056,56.18124 -3.53553,-3.53553 6.0104,-6.01041 6.01041,-6.0104 3.53554,3.53553 3.53553,3.53553 -6.01041,6.01041 -6.01041,6.01041 -3.53553,-3.53554 z m 169.6553,-127.12403 c 5.114,-15.76641 -11.7631,-16.88793 -27.04772,-1.79739 -13.08588,12.91972 -12.25445,25.77921 1.50747,23.31589 10.2142,-1.8283 22.51517,-12.19227 25.54025,-21.5185 z M 502.30809,180.1185 c 7.01044,-14.52102 -0.77148,-24.6065 -14.92474,-19.34267 -14.2902,5.31474 -26.73025,22.72738 -23.95183,33.52592 1.24858,4.85269 3.88108,6.75132 9.77551,7.05034 4.8313,0.24509 8.60998,-1.01965 15.82732,-5.29748 3.15631,-1.87078 11.07039,-11.37223 13.27374,-15.93611 z m -32.77236,-20.53307 c 4.88408,-8.09419 7.07775,-19.59224 5.00416,-26.2292 -1.57585,-5.04383 -5.98134,-8.54829 -11.16979,-8.88531 -15.29468,-0.99348 -33.96405,23.57241 -31.54919,41.51363 0.36833,2.73643 1.66152,5.58165 3.61186,7.94665 2.61126,3.16643 3.63097,3.73505 7.25755,4.04734 5.36543,0.46198 9.18624,-0.76747 14.64921,-4.71377 4.63732,-3.34987 8.73987,-7.95133 12.1962,-13.67934 z m -43.3384,-17.93898 c 12.6803,-21.37453 9.44925,-46.792314 -6.28448,-49.438434 -1.93404,-0.32527 -5.76891,0.17456 -8.52193,1.11075 -6.81157,2.3163 -16.9631,12.490204 -20.95187,20.998104 -10.89117,23.23021 -5.20991,46.30975 11.26155,45.74887 8.02059,-0.27312 18.3306,-8.02526 24.49676,-18.41925 z"
             style="fill:#000000;fill-opacity:1" />
        </g>
        <g
           id="g4932"
           style="fill:#ffffff;fill-opacity:1;stroke:#000000;stroke-width:2;stroke-linecap:square;stroke-linejoin:miter;stroke-miterlimit:4;stroke-dasharray:none;stroke-opacity:1">
          <path
             inkscape:connector-curvature="0"
             id="path4920"
             d="m 262.01554,456.05578 c -7.01154,-1.7594 -16.14759,-7.32916 -22.49214,-13.71224 -15.10797,-15.19975 -18.38722,-34.26762 -9.05906,-52.67585 3.2866,-6.48581 14.63008,-17.06373 29.41196,-27.42699 16.8813,-11.83512 25.83837,-19.46691 38.95064,-33.18752 23.93117,-25.04144 31.80753,-41.07167 51.9781,-105.78752 2.59745,-8.33376 6.60574,-18.78884 8.90729,-23.23351 7.60561,-14.68767 20.93642,-25.21013 35.25344,-27.82675 7.74513,-1.41551 16.29128,0.16838 26.02721,4.82373 6.49877,3.10746 9.59528,5.64162 21.8207,17.85787 15.24808,15.23666 19.83161,21.74578 25.78862,36.62271 7.39499,18.46811 8.93253,39.62635 3.7016,50.93789 -4.49178,9.7132 -8.59563,13.06219 -29.08492,23.73509 -59.68872,31.09197 -60.78582,32.0808 -105.81798,95.37489 -10.07974,14.16739 -21.32238,29.03332 -24.98363,33.0354 -7.54067,8.24263 -18.82272,16.23878 -27.48433,19.47951 -6.71944,2.51406 -17.1909,3.42027 -22.9175,1.98329 z m 37.35768,-47.25379 c 5.23089,-3.79356 10.41094,-9.80153 12.25396,-14.21248 5.16199,-12.35438 -9.15203,-30.64069 -23.98468,-30.64069 -5.45932,0 -9.5973,1.91542 -15.35753,7.10879 -10.45178,9.42325 -10.3521,21.77371 0.26105,32.34339 6.10829,6.08326 10.46516,8.16007 17.23075,8.21346 4.64907,0.0367 6.35866,-0.46434 9.59645,-2.81247 z m 28.16542,-43.70828 c -4.61397,-4.6872 -7.19909,-7.95566 -6.04304,-7.64045 1.11117,0.30298 7.17082,1.55735 13.4659,2.78749 l 11.44559,2.23662 4.70428,-4.70429 4.70429,-4.70428 -16.12671,-16.15036 -16.12669,-16.15037 -4.82988,4.75726 -4.82988,4.75725 8.34224,8.49122 c 6.38497,6.499 7.74973,8.3444 5.81685,7.86546 -1.38896,-0.34416 -7.65102,-1.63402 -13.9157,-2.86636 l -11.39031,-2.24062 -4.75956,4.75957 -4.75956,4.75956 16.13794,16.16162 16.13794,16.16162 5.04482,-5.04482 5.04482,-5.04481 -8.06334,-8.19131 z m 30.31444,-30.19811 5.98967,-6.05282 -3.96241,-4.05788 -3.96242,-4.05788 -5.84694,5.78593 c -3.21582,3.18227 -5.84695,6.2331 -5.84695,6.77962 0,1.06718 6.06583,7.65586 7.04831,7.65586 0.3251,0 3.28643,-2.72378 6.58074,-6.05283 z m 25.26183,-10.99395 c 4.5034,-2.06202 13.12629,-10.77272 14.66161,-14.81091 2.84303,-7.47772 0.26603,-15.42097 -7.54656,-23.26124 -6.76593,-6.78989 -12.74326,-9.32078 -18.88223,-7.99502 -13.19205,2.84893 -23.1127,16.39435 -20.1273,27.48131 2.2985,8.53596 9.27959,15.92741 17.97214,19.02856 5.23248,1.86674 9.15069,1.74215 13.92234,-0.4427 z m 33.77849,-31.88284 4.39964,-4.4829 -7.14594,-7.88113 c -3.93027,-4.33461 -7.00054,-8.02651 -6.82284,-8.20421 0.17771,-0.17771 5.91675,0.85792 12.75342,2.3014 l 12.43031,2.62451 4.50995,-4.50996 4.50996,-4.50995 -5.14347,-5.88302 c -2.82891,-3.23566 -9.94329,-10.64238 -15.80975,-16.45939 l -10.6663,-10.57638 -4.55789,4.47325 c -2.50686,2.46028 -4.55791,4.8318 -4.55791,5.27003 0,0.43823 3.23977,4.20742 7.19948,8.37597 3.95972,4.16856 6.57349,7.57684 5.80838,7.57397 -0.76511,-0.003 -6.61865,-1.11797 -13.00786,-2.47799 l -11.61676,-2.47278 -4.81156,4.726 -4.81156,4.726 15.9114,15.93474 c 8.75127,8.76411 16.16301,15.93474 16.47053,15.93474 0.30752,0 2.53897,-2.0173 4.95877,-4.4829 z"
             style="fill:#ffffff;fill-opacity:1;stroke:#000000;stroke-width:2;stroke-linecap:square;stroke-linejoin:miter;stroke-miterlimit:4;stroke-dasharray:none;stroke-opacity:1" />
          <path
             inkscape:connector-curvature="0"
             id="path4922"
             d="m 392.64512,156.38484 c -4.92215,-4.14171 -6.9567,-9.58383 -6.98265,-18.67747 -0.0436,-15.27615 7.34814,-30.90189 18.72871,-39.591599 8.81994,-6.734529 17.05613,-7.166154 23.0161,-1.206181 4.50162,4.50162 6.08795,10.59768 5.47348,21.03381 -0.88854,15.09081 -8.37745,29.01056 -19.82114,36.84186 -5.52365,3.78001 -7.02951,4.33571 -11.74923,4.33571 -4.4119,0 -6.01523,-0.50627 -8.66527,-2.73613 z"
             style="fill:#ffffff;fill-opacity:1;stroke:#000000;stroke-width:2;stroke-linecap:square;stroke-linejoin:miter;stroke-miterlimit:4;stroke-dasharray:none;stroke-opacity:1" />
          <path
             inkscape:connector-curvature="0"
             id="path4924"
             d="m 436.30238,173.78978 c -5.60798,-6.38714 -5.50566,-15.51503 0.30667,-27.35693 4.2327,-8.62359 12.9796,-17.42993 19.95088,-20.08643 6.40182,-2.43951 10.85344,-1.52874 14.86616,3.04149 2.76764,3.15217 3.10762,4.23658 3.10762,9.91209 0,11.30537 -5.01027,21.94178 -14.42238,30.61755 -6.14486,5.66414 -9.81158,7.38616 -15.72739,7.38616 -4.43947,0 -5.34012,-0.39161 -8.08156,-3.51393 z"
             style="fill:#ffffff;fill-opacity:1;stroke:#000000;stroke-width:2;stroke-linecap:square;stroke-linejoin:miter;stroke-miterlimit:4;stroke-dasharray:none;stroke-opacity:1" />
          <path
             inkscape:connector-curvature="0"
             id="path4926"
             d="m 466.47819,198.54261 c -8.05357,-8.05356 2.47461,-28.50288 18.52114,-35.9744 12.74148,-5.93263 21.95433,-0.10823 18.81014,11.89184 -2.25773,8.61683 -11.66861,19.94805 -19.67931,23.69498 -6.55977,3.06828 -14.79055,3.249 -17.65197,0.38758 z"
             style="fill:#ffffff;fill-opacity:1;stroke:#000000;stroke-width:2;stroke-linecap:square;stroke-linejoin:miter;stroke-miterlimit:4;stroke-dasharray:none;stroke-opacity:1" />
          <path
             inkscape:connector-curvature="0"
             id="path4928"
             d="m 483.27657,228.99449 c -6.80259,-7.51677 10.42191,-28.67297 25.27807,-31.0481 3.67448,-0.58746 4.55792,-0.33841 6.81853,1.9222 3.2732,3.2732 3.27038,5.99193 -0.013,12.58088 -6.33601,12.71472 -26.25431,22.98629 -32.08357,16.54502 z"
             style="fill:#ffffff;fill-opacity:1;stroke:#000000;stroke-width:2;stroke-linecap:square;stroke-linejoin:miter;stroke-miterlimit:4;stroke-dasharray:none;stroke-opacity:1" />
          <path
             inkscape:connector-curvature="0"
             id="path4930"
             d="m 495.64169,255.99039 c -1.62561,-1.62561 -1.97777,-2.86434 -1.49728,-5.26676 1.81148,-9.05743 20.44086,-19.33543 28.78317,-15.87993 5.85008,2.42318 5.1046,6.30348 -2.77527,14.44558 -7.64112,7.89539 -19.95089,11.26084 -24.51062,6.70111 z"
             style="fill:#ffffff;fill-opacity:1;stroke:#000000;stroke-width:2;stroke-linecap:square;stroke-linejoin:miter;stroke-miterlimit:4;stroke-dasharray:none;stroke-opacity:1" />
        </g>
      </g>
      <ellipse
         ry="0.41037446"
         rx="1.7993342"
         cy="347.05475"
         cx="327.5307"
         id="path4942"
         style="fill:#000000;fill-opacity:1;stroke:#000000;stroke-width:2;stroke-linecap:square;stroke-linejoin:miter;stroke-miterlimit:4;stroke-dasharray:none;stroke-opacity:1" />
      <ellipse
         ry="2.9988904"
         rx="2.3359778"
         cy="358.41898"
         cx="317.90268"
         id="path4944"
         style="fill:#000000;fill-opacity:1;stroke:#000000;stroke-width:2;stroke-linecap:square;stroke-linejoin:miter;stroke-miterlimit:4;stroke-dasharray:none;stroke-opacity:1" />
      <ellipse
         ry="0.88388348"
         rx="1.1995561"
         cy="270.56726"
         cx="403.07117"
         id="path4946"
         style="fill:#000000;fill-opacity:1;stroke:#000000;stroke-width:2;stroke-linecap:square;stroke-linejoin:miter;stroke-miterlimit:4;stroke-dasharray:none;stroke-opacity:1" />
      <ellipse
         ry="1.2311234"
         rx="1.7993342"
         cy="259.99222"
         cx="413.58307"
         id="path4948"
         style="fill:#000000;fill-opacity:1;stroke:#000000;stroke-width:2;stroke-linecap:square;stroke-linejoin:miter;stroke-miterlimit:4;stroke-dasharray:none;stroke-opacity:1" />
      <ellipse
         ry="1.2053572"
         rx="2.1875"
         cy="198.56757"
         cx="515.00891"
         id="path4950"
         style="fill:#000000;fill-opacity:1;stroke:#000000;stroke-width:2;stroke-linecap:square;stroke-linejoin:miter;stroke-miterlimit:4;stroke-dasharray:none;stroke-opacity:1" />
    </g>
  </g>
</svg>
