<?xml version="1.0" encoding="UTF-8" standalone="no"?>
<!-- Created with Inkscape (http://www.inkscape.org/) -->
<svg id="svg3342" xmlns:rdf="http://www.w3.org/1999/02/22-rdf-syntax-ns#" xmlns="http://www.w3.org/2000/svg" height="53.991mm" width="133.51mm" version="1.1" xmlns:cc="http://creativecommons.org/ns#" xmlns:dc="http://purl.org/dc/elements/1.1/" viewBox="0 0 473.0628 191.30837">
 <metadata id="metadata3347">
  <rdf:RDF>
   <cc:Work rdf:about="">
    <dc:format>image/svg+xml</dc:format>
    <dc:type rdf:resource="http://purl.org/dc/dcmitype/StillImage"/>
    <dc:title/>
   </cc:Work>
  </rdf:RDF>
 </metadata>
 <g id="layer1" transform="translate(80.853 -144.46)">
  <g id="g4916" transform="matrix(.53155 .52272 -.52272 .53155 195.91 -81.879)" class="logo-edges">
   <path id="path4398" d="m522.43 269.83c-8.2521 4.1589-16.287 6.0923-23.358 5.62l-6.5324-0.43634-1.2422 5.6914c-2.1206 9.7161-5.7533 16.215-13.307 23.804-6.1848 6.2145-7.8477 7.3153-21.569 14.279-18.79 9.5362-36.818 19.612-50.087 27.992-8.8316 5.5783-11.284 7.5925-16.715 13.73-8.7456 9.8822-17.837 22.04-34.133 45.647-19.894 28.819-27.706 38.754-37.037 47.108-24.116 21.589-49.327 26.507-74.107 14.456-6.7323-3.274-8.5562-4.6715-16.384-12.553-10.165-10.235-15.556-18.672-18.916-29.604-2.9385-9.561-2.8036-23.51 0.31875-32.945 5.5382-16.736 14.283-26.35 40.839-44.9 16.567-11.572 18.434-13.132 32.074-26.795 11.185-11.204 15.564-16.165 19.226-21.786 11.467-17.597 20.881-40.534 30.513-74.34 2.6867-9.4299 5.8956-19.759 7.1309-22.953 5.7539-14.878 15.839-28.174 27.503-36.256 3.6755-2.5471 6.642-4.6717 6.5922-4.7215s-1.3312-3.7784-2.8477-8.2858c-4.9588-14.739-2.2159-33.819 7.2263-50.268 4.8464-8.4427 16.484-19.804 23.735-23.172 11.839-5.499 22.354-5.2788 32.415 0.6787 8.5157 5.0423 15.161 15.217 16.534 25.317l0.54388 3.9996 2.9797-0.94108c1.6389-0.51761 5.4388-0.95269 8.4442-0.96685 16.255-0.0766 29.062 12.587 29.924 29.589l0.27017 5.3259 3.2597-0.10177c1.7928-0.056 6.0598 0.9636 9.4821 2.2657 5.1766 1.9696 6.8339 3.101 9.8611 6.7319 6.2505 7.4971 7.6312 14.109 5.8168 27.854-0.36192 2.7418-0.13653 3.0749 3.4955 5.1659 9.7455 5.6106 13.701 19.042 9.1353 31.017l-1.5615 4.0954 5.5683 5.5683c5.0509 5.051 5.6491 6.0433 6.4378 10.68 0.50338 2.9594 0.15332 7.6671-0.83129 11.179-1.5414 5.4984-2.3465 6.7483-8.5882 13.332-5.2146 5.5004-8.156 7.9042-12.111 9.8973zm4.5065-28.061c2.7145-8.5285-8.8801-10.85-21.102-4.2254-10.885 5.9004-15.461 14.295-10.497 19.258 2.9181 2.9181 11.846 2.0227 19.28-1.9336 4.0651-2.1636 11.281-9.836 12.32-13.099zm-53.227 38.889c5.6032-16.312 0.91876-42.17-11.552-63.764-4.4752-7.7494-6.3017-9.9527-18.024-21.742-14.145-14.225-18.926-17.641-30.519-21.807-20.788-7.4696-44.007 4.5062-55.849 28.806-2.0872 4.2828-6.4416 16.941-9.6764 28.13-10.446 36.129-19.664 58.422-32.118 77.671-5.0107 7.7442-8.0219 11.216-21.35 24.612-14.977 15.054-16.15 16.039-33.753 28.354-15.56 10.885-19.245 13.86-25.107 20.268-5.8864 6.4344-7.2262 8.491-9.3517 14.355-4.7561 13.123-3.0557 25.308 5.3263 38.171 4.8913 7.5057 9.3969 12.037 16.671 16.767 17.72 11.522 37.484 8.5778 57.305-8.5365 8.4665-7.3105 15.926-16.729 35.451-44.76 30.903-44.366 40.785-55.634 57.836-65.948 14.77-8.934 31.259-18.084 46.616-25.867 7.7431-3.9242 15.025-7.7792 16.182-8.5667 4.4157-3.0057 9.9969-10.57 11.912-16.144zm43.639-70.935c5.114-15.766-11.763-16.888-27.048-1.7974-13.086 12.92-12.254 25.779 1.5075 23.316 10.214-1.8283 22.515-12.192 25.54-21.518zm-15.04-29.6c7.0104-14.521-0.77148-24.606-14.925-19.343-14.29 5.3147-26.73 22.727-23.952 33.526 1.2486 4.8527 3.8811 6.7513 9.7755 7.0503 4.8313 0.24509 8.61-1.0196 15.827-5.2975 3.1563-1.8708 11.07-11.372 13.274-15.936zm-32.772-20.533c4.8841-8.0942 7.0778-19.592 5.0042-26.229-1.5758-5.0438-5.9813-8.5483-11.17-8.8853-15.295-0.99348-33.964 23.572-31.549 41.514 0.36833 2.7364 1.6615 5.5816 3.6119 7.9466 2.6113 3.1664 3.631 3.735 7.2576 4.0473 5.3654 0.46198 9.1862-0.76747 14.649-4.7138 4.6373-3.3499 8.7399-7.9513 12.196-13.679zm-43.338-17.939c12.68-21.375 9.4492-46.792-6.2845-49.438-1.934-0.32527-5.7689 0.17456-8.5219 1.1108-6.8116 2.3163-16.963 12.49-20.952 20.998-10.891 23.23-5.2099 46.31 11.262 45.749 8.0206-0.27312 18.331-8.0253 24.497-18.419z" class="logo-edges"/>
  </g>
  <g id="g4444" transform="matrix(-.53155 -.52272 .52272 -.53155 115.45 562.11)" class="logo-edges">
   <path id="path4446" d="m522.43 269.83c-8.2521 4.1589-16.287 6.0923-23.358 5.62l-6.5324-0.43634-1.2422 5.6914c-2.1206 9.7161-5.7533 16.215-13.307 23.804-6.1848 6.2145-7.8477 7.3153-21.569 14.279-18.79 9.5362-36.818 19.612-50.087 27.992-8.8316 5.5783-11.284 7.5925-16.715 13.73-8.7456 9.8822-17.837 22.04-34.133 45.647-19.894 28.819-27.706 38.754-37.037 47.108-24.116 21.589-49.327 26.507-74.107 14.456-6.7323-3.274-8.5562-4.6715-16.384-12.553-10.165-10.235-15.556-18.672-18.916-29.604-2.9385-9.561-2.8036-23.51 0.31875-32.945 5.5382-16.736 14.283-26.35 40.839-44.9 16.567-11.572 18.434-13.132 32.074-26.795 11.185-11.204 15.564-16.165 19.226-21.786 11.467-17.597 20.881-40.534 30.513-74.34 2.6867-9.4299 5.8956-19.759 7.1309-22.953 5.7539-14.878 15.839-28.174 27.503-36.256 3.6755-2.5471 6.642-4.6717 6.5922-4.7215s-1.3312-3.7784-2.8477-8.2858c-4.9588-14.739-2.2159-33.819 7.2263-50.268 4.8464-8.4427 16.484-19.804 23.735-23.172 11.839-5.499 22.354-5.2788 32.415 0.6787 8.5157 5.0423 15.161 15.217 16.534 25.317l0.54388 3.9996 2.9797-0.94108c1.6389-0.51761 5.4388-0.95269 8.4442-0.96685 16.255-0.0766 29.062 12.587 29.924 29.589l0.27017 5.3259 3.2597-0.10177c1.7928-0.056 6.0598 0.9636 9.4821 2.2657 5.1766 1.9696 6.8339 3.101 9.8611 6.7319 6.2505 7.4971 7.6312 14.109 5.8168 27.854-0.36192 2.7418-0.13653 3.0749 3.4955 5.1659 9.7455 5.6106 13.701 19.042 9.1353 31.017l-1.5615 4.0954 5.5683 5.5683c5.0509 5.051 5.6491 6.0433 6.4378 10.68 0.50338 2.9594 0.15332 7.6671-0.83129 11.179-1.5414 5.4984-2.3465 6.7483-8.5882 13.332-5.2146 5.5004-8.156 7.9042-12.111 9.8973zm4.5065-28.061c2.7145-8.5285-8.8801-10.85-21.102-4.2254-10.885 5.9004-15.461 14.295-10.497 19.258 2.9181 2.9181 11.846 2.0227 19.28-1.9336 4.0651-2.1636 11.281-9.836 12.32-13.099zm-53.227 38.889c5.6032-16.312 0.91876-42.17-11.552-63.764-4.4752-7.7494-6.3017-9.9527-18.024-21.742-14.145-14.225-18.926-17.641-30.519-21.807-20.788-7.4696-44.007 4.5062-55.849 28.806-2.0872 4.2828-6.4416 16.941-9.6764 28.13-10.446 36.129-19.664 58.422-32.118 77.671-5.0107 7.7442-8.0219 11.216-21.35 24.612-14.977 15.054-16.15 16.039-33.753 28.354-15.56 10.885-19.245 13.86-25.107 20.268-5.8864 6.4344-7.2262 8.491-9.3517 14.355-4.7561 13.123-3.0557 25.308 5.3263 38.171 4.8913 7.5057 9.3969 12.037 16.671 16.767 17.72 11.522 37.484 8.5778 57.305-8.5365 8.4665-7.3105 15.926-16.729 35.451-44.76 30.903-44.366 40.785-55.634 57.836-65.948 14.77-8.934 31.259-18.084 46.616-25.867 7.7431-3.9242 15.025-7.7792 16.182-8.5667 4.4157-3.0057 9.9969-10.57 11.912-16.144zm43.639-70.935c5.114-15.766-11.763-16.888-27.048-1.7974-13.086 12.92-12.254 25.779 1.5075 23.316 10.214-1.8283 22.515-12.192 25.54-21.518zm-15.04-29.6c7.0104-14.521-0.77148-24.606-14.925-19.343-14.29 5.3147-26.73 22.727-23.952 33.526 1.2486 4.8527 3.8811 6.7513 9.7755 7.0503 4.8313 0.24509 8.61-1.0196 15.827-5.2975 3.1563-1.8708 11.07-11.372 13.274-15.936zm-32.772-20.533c4.8841-8.0942 7.0778-19.592 5.0042-26.229-1.5758-5.0438-5.9813-8.5483-11.17-8.8853-15.295-0.99348-33.964 23.572-31.549 41.514 0.36833 2.7364 1.6615 5.5816 3.6119 7.9466 2.6113 3.1664 3.631 3.735 7.2576 4.0473 5.3654 0.46198 9.1862-0.76747 14.649-4.7138 4.6373-3.3499 8.7399-7.9513 12.196-13.679zm-43.338-17.939c12.68-21.375 9.4492-46.792-6.2845-49.438-1.934-0.32527-5.7689 0.17456-8.5219 1.1108-6.8116 2.3163-16.963 12.49-20.952 20.998-10.891 23.23-5.2099 46.31 11.262 45.749 8.0206-0.27312 18.331-8.0253 24.497-18.419z" class="logo-edges"/>
  </g>
  <g id="g5014" fill="#fff" class="logo-fill">
   <path id="path4990" d="m28.998 153.38c-13.349-3.5894-11.892-18.548 2.7267-27.996 8.7545-5.6583 19.047-7.8108 27.298-5.7089 12.795 3.2596 14.094 14.118 2.9254 24.458-9.1533 8.4743-22.204 12.137-32.95 9.2475z" transform="translate(-80.853 144.46)" class="logo-fill"/>
   <path id="path4992" d="m23.665 113.17c-11.499-2.7078-13.985-11.47-5.3939-19.013 9.6263-8.452 27.103-10.212 34.271-3.452 2.1665 2.0433 2.6364 3.0397 2.6364 5.5909 0 4.1584-0.86476 6.1877-3.9227 9.2057-3.4543 3.4092-8.9389 6.1048-15.061 7.4025-5.6713 1.2021-8.3161 1.2583-12.529 0.26616z" transform="translate(-80.853 144.46)" class="logo-fill"/>
   <path id="path4994" d="m28.461 79.166c-7.89-1.4775-13.74-5.6994-13.74-9.9155 0-5.9976 7.0324-10.324 17.602-10.83 8.1519-0.38975 13.361 1.1039 17.184 4.9269 6.8264 6.8264-0.46889 14.758-14.558 15.828-2.5191 0.19125-5.4389 0.18691-6.4885-0.0096z" transform="translate(-80.853 144.46)" class="logo-fill"/>
   <path id="path4996" d="m38.766 50.177c-5.79-1.4806-8.9641-2.9644-10.664-4.9851-2.5274-3.0036-2.4376-4.1137 0.57619-7.1275 5.8606-5.8606 21.52-5.1184 28.6 1.3554 3.3308 3.0456 1.9417 7.3074-3.0312 9.2997-3.2726 1.3111-12.614 2.1906-15.48 1.4575z" transform="translate(-80.853 144.46)" class="logo-fill"/>
   <path id="path4998" d="m51.609 26.689c-9.0279-2.9372-13.698-9.1332-9.2379-12.257 2.6727-1.872 12.773-1.6188 16.845 0.42238 6.922 3.4691 9.2839 7.9093 5.857 11.011-1.9943 1.8048-9.111 2.2404-13.464 0.82402z" transform="translate(-80.853 144.46)" class="logo-fill"/>
   <path id="path5000" d="m86.476 124.36c-10.497-2.92-17.427-9.6-21.492-20.72-1.438-3.935-1.694-6.553-1.987-20.263-0.306-14.331-0.187-16.319 1.319-22.138 3.39-13.091 9.881-25.058 17.992-33.168 5.7398-5.7398 11.328-8.5997 17.946-9.1845 4.313-0.38114 6.1573-0.05361 14.848 2.637 26.435 8.184 45.334 12.903 54.462 13.599 9.3669 0.71396 21.627-0.91852 63.858-8.5032 19.371-3.4789 29.761-4.1215 38.555-2.3846 18.435 3.6412 28.265 15.088 28.228 32.872-0.0308 14.667-6.0828 25.688-17.194 31.309-4.1087 2.0788-5.2484 2.2856-14.053 2.5504-7.9284 0.23838-11.689-0.07643-21.795-1.8245-10.505-1.8171-14.83-2.1546-30.916-2.4128l-18.702-0.30022-10.4 2.6379c-13.623 3.4555-26.908 8.8324-43.799 17.726-22.432 11.812-31.795 16.291-36.611 17.512-5.4006 1.3688-15.45 1.399-20.259 0.0608z" transform="translate(-80.853 144.46)" class="logo-fill"/>
   <path id="path5002" d="m350.98 167.8c-8.8168-2.7225-21.527-6.3845-28.244-8.1379-11.93-3.1137-12.498-3.187-24.427-3.1529-12.826 0.0366-15.464 0.41211-61.45 8.7477-16.552 3.0002-31.777 3.448-39.313 1.1562-16.587-5.044-24.838-15.953-24.798-32.785 0.0332-13.923 6.6162-25.548 17.492-30.889 3.82-1.876 5.2332-2.1155 13.889-2.3535 7.9298-0.21808 11.917 0.1198 22.519 1.9084 11.927 2.0121 14.356 2.171 32.731 2.1416l19.847-0.0318 9.7504-2.8146c13.057-3.769 25.739-9.0942 41.395-17.381 31.374-16.606 35.678-18.291 46.749-18.291 13.676 0 23.815 6.1818 29.274 17.848 3.1426 6.7155 3.7473 11.106 3.7473 27.209 0 13.059-0.1705 14.908-1.9441 21.079-4.0992 14.264-12.591 27.957-21.568 34.781-5.2037 3.9552-8.183 5.0592-15.038 5.5726-4.0203 0.30105-6.5397-0.26211-20.611-4.607z" transform="translate(-80.853 144.46)" class="logo-fill"/>
   <path id="path5004" d="m414.97 72.022c-13.379-2.7885-15.357-13.386-4.5018-24.125 7.913-7.8285 18.124-11.617 28.927-10.733 12.473 1.0212 17.441 9.2837 11.588 19.272-6.1451 10.487-23.806 18.129-36.013 15.585z" transform="translate(-80.853 144.46)" class="logo-fill"/>
   <path id="path5006" d="m427.21 104.12c-3.4052-0.81202-7.4479-3.4762-8.6319-5.6884-0.63194-1.1808-0.86054-3.2214-0.60995-5.4446 0.78174-6.9356 9.6265-13.155 21.262-14.95 8.0599-1.2435 13.768 0.02107 17.659 3.9122 2.4949 2.4949 2.8718 3.3366 2.8718 6.4138 0 3.1012-0.40026 3.9762-3.2163 7.0313-6.6834 7.2507-19.515 11.067-29.335 8.7255z" transform="translate(-80.853 144.46)" class="logo-fill"/>
   <path id="path5008" d="m429.46 131.89c-3.7346-1.3799-8.6339-6.4392-8.6298-8.9115 0.005-2.8853 2.7242-6.383 6.3138-8.1207 12.789-6.191 31.088-1.7466 31.088 7.5504 0 3.5375-2.4436 6.3476-7.4484 8.5653-4.8132 2.1329-16.654 2.6418-21.324 0.91648z" transform="translate(-80.853 144.46)" class="logo-fill"/>
   <path id="path5010" d="m426.23 156.73c-11.903-2.4704-16.202-10.107-7.8545-13.955 2.849-1.3132 5.0269-1.6579 10.468-1.6568 3.8058 0.00073 8.1763 0.46068 9.7983 1.0312 3.8928 1.3691 8.1406 5.1747 8.1406 7.293 0 1.9476-3.2732 5.3424-6.2265 6.4578-3.1179 1.1776-10.57 1.6092-14.326 0.82974z" transform="translate(-80.853 144.46)" class="logo-fill"/>
   <path id="path5012" d="m413.35 176.15c-6.5893-3.2836-8.794-7.6378-5.4139-10.693 2.3966-2.166 11.217-1.9866 16.33 0.33197 5.0514 2.2907 8.0153 5.1954 8.0153 7.8554 0 3.2904-2.4386 4.4806-9.1803 4.4806-4.6951 0-6.5352-0.37275-9.751-1.9753z" transform="translate(-80.853 144.46)" class="logo-fill"/>
  </g>
  <flowRoot id="flowRoot5116" style="word-spacing:0px;letter-spacing:0px" line-height="125%" xml:space="preserve" transform="matrix(1.908 0 0 1.4772 -117.54 115.61)" class="logo-text" font-size="40px" font-family="sans-serif" fill="#ff00ff"><flowRegion id="flowRegion5118"><rect id="rect5120" height="128.24" width="307.63" y="35.583" x="85.496" fill="#f0f"/></flowRegion><flowPara id="flowPara5122" font-weight="bold" fill="#ff00ff">hhh</flowPara></flowRoot>
  <flowRoot id="flowRoot5124" style="word-spacing:0px;letter-spacing:0px" line-height="125%" xml:space="preserve" transform="matrix(1.7904 0 0 1.4192 -288.8 83.553)" class="logo-text" font-size="40px" font-family="sans-serif" fill="#ff00ff"><flowRegion id="flowRegion5126"><rect id="rect5128" height="46.565" width="180.92" y="109.63" x="216.03" fill="#f0f"/></flowRegion><flowPara id="flowPara5130" font-weight="bold" fill="#ff00ff">info</flowPara></flowRoot>
 </g>
</svg>
